<svg xmlns="http://www.w3.org/2000/svg" viewBox="0 0 64 64">
  <rect width="64" height="64" rx="14" fill="#111827" />
  <defs>
    <clipPath id="flask">
      <path d="M28 14v16L16.5 50.5A3 3 0 0 0 19.1 55h25.8a3 3 0 0 0 2.6-4.5L36 30V14Z" />
    </clipPath>
  </defs>
  <g clip-path="url(#flask)">
    <path d="M13 42c7-5 12 4 19-.5s12 4 19-.5v17H13Z" fill="#22D3EE" />
    <circle cx="26" cy="47" r="2" fill="#A5F3FC" />
    <circle cx="38" cy="50" r="1.5" fill="#A5F3FC" />
  </g>
  <path
    d="M24 14h16M28 14v16L16.5 50.5A3 3 0 0 0 19.1 55h25.8a3 3 0 0 0 2.6-4.5L36 30V14"
    fill="none"
    stroke="#F9FAFB"
    stroke-linecap="round"
    stroke-linejoin="round"
    stroke-width="4"
  />
  <circle cx="40.5" cy="25.5" r="2.5" fill="#22D3EE" />
</svg>
